PathFileType	4	(X/Y/Z)	C:\Git\research_data\Projects\torsion_deformities_healthy_kinematics\simulations\TD01\pre\dynamic_14_l\marker_experimental.trc
DataRate	CameraRate	NumFrames	NumMarkers	Units	OrigDataRate	OrigDataStartFrame	OrigNumFrames
200	200	8	30	mm	200	387	618
Frame#	Time	C7			T10			CLAV			STRN			RBAK			LASI			RASI			SACR			RT1			RT2			RT3			RKNE			RS1			RS2			RS3			RANK			RHEE			RTOE			LT1			LT2			LT3			LKNE			LS1			LS2			LS3			LANK			LHEE			LTOE			RHJC			LHJC		
		X1	Y1	Z1	X2	Y2	Z2	X3	Y3	Z3	X4	Y4	Z4	X5	Y5	Z5	X6	Y6	Z6	X7	Y7	Z7	X8	Y8	Z8	X9	Y9	Z9	X10	Y10	Z10	X11	Y11	Z11	X12	Y12	Z12	X13	Y13	Z13	X14	Y14	Z14	X15	Y15	Z15	X16	Y16	Z16	X17	Y17	Z17	X18	Y18	Z18	X19	Y19	Z19	X20	Y20	Z20	X21	Y21	Z21	X22	Y22	Z22	X23	Y23	Z23	X24	Y24	Z24	X25	Y25	Z25	X26	Y26	Z26	X27	Y27	Z27	X28	Y28	Z28	X29	Y29	Z29	X30	Y30	Z30	

387	1.930000	601.324280	1225.606323	-195.357010	557.182861	1038.907959	-196.359543	719.764099	1172.642944	-197.841324	763.838074	1039.272339	-207.623825	565.260376	1148.704834	-106.155869	686.664917	840.841125	-312.313263	704.456177	833.112366	-109.289742	534.535034	875.513367	-189.680756	727.621582	650.349854	-74.436485	715.347351	586.176086	-67.715935	762.496277	596.252625	-89.226379	785.492249	467.552795	-100.957222	774.846497	328.125885	-80.811943	778.230469	262.661407	-96.272644	824.273193	283.362061	-85.857079	872.279846	85.694489	-120.471085	840.844299	63.055992	-178.885742	1007.590210	111.523193	-125.018677	593.024231	651.916016	-349.405060	552.465637	599.044617	-342.028351	602.092346	588.130554	-333.218842	534.131348	444.261749	-315.872711	423.928894	343.559021	-335.360229	381.529114	292.890656	-325.718994	430.353577	278.949890	-320.741211	291.188446	140.103424	-298.510345	252.044952	152.001892	-257.160187	411.827240	61.339375	-272.662201	636.779043	775.693005	-133.040764	623.763191	781.347264	-281.570103	
388	1.935000	608.185547	1225.177734	-194.357193	564.437195	1038.339111	-195.708893	726.755432	1172.400757	-196.804733	771.151123	1039.155273	-206.500946	572.194702	1148.133667	-105.212624	694.524475	840.045654	-311.746735	712.120850	832.968262	-108.898178	542.115112	874.923462	-189.479584	736.861389	651.088501	-74.908630	724.978271	586.822205	-67.956520	771.851318	597.093933	-90.112762	794.488525	467.920898	-101.705872	782.990356	328.334015	-80.984535	785.160583	262.689880	-96.182281	831.704407	282.907166	-87.025475	875.535889	84.533607	-121.054321	842.320923	62.768360	-178.754272	1011.251709	106.431023	-128.410233	601.457764	650.949158	-348.942871	560.996582	597.937683	-341.797241	610.637390	587.159363	-332.934662	542.956482	442.811646	-316.497528	430.681793	344.054047	-335.718353	387.291656	294.172638	-326.090668	435.837738	279.281433	-321.309265	294.114471	143.050110	-298.953888	255.590500	156.078857	-257.434418	412.254364	61.121864	-272.639648	644.532823	775.455345	-132.495675	631.658219	780.633606	-280.912319	
389	1.940000	615.046509	1224.808716	-193.358154	571.687744	1037.835083	-195.071686	733.742676	1172.219727	-195.776886	778.463013	1039.101685	-205.387665	579.138489	1147.626953	-104.265198	702.392944	839.285889	-311.134888	719.758057	832.943909	-108.484131	549.672852	874.403503	-189.303391	745.845703	651.731506	-75.249542	734.146484	587.358215	-68.277985	780.840637	597.736633	-90.829063	803.442505	468.392975	-102.466034	791.258728	328.774780	-81.080299	792.298706	262.980774	-95.892723	839.240540	282.720856	-88.160355	878.725403	83.617683	-121.484741	843.726501	62.785736	-178.465927	1014.800110	101.382607	-131.602005	610.109863	649.955322	-348.438538	569.820557	596.759705	-341.553070	619.486145	586.174744	-332.617950	552.152222	441.301971	-317.192749	437.762939	344.597107	-336.107605	393.388702	295.543793	-326.449554	441.636383	279.679016	-321.950104	297.435181	146.166672	-299.351318	259.639130	160.354492	-257.631378	412.677002	60.844940	-272.581207	652.270078	775.329399	-131.911168	639.563206	779.970125	-280.200292	
390	1.945000	621.905029	1224.501221	-192.362961	578.930298	1037.398560	-194.449219	740.723083	1172.100708	-194.761414	785.768250	1039.111572	-204.289078	586.089478	1147.187500	-103.316231	710.259521	838.566284	-310.478699	727.360107	833.040466	-108.046608	557.201782	873.956177	-189.149811	754.545044	652.287598	-75.454887	742.832764	587.796875	-68.648315	789.441711	598.200745	-91.354179	812.325806	468.963989	-103.225517	799.636230	329.444000	-81.083099	799.632996	263.537048	-95.377190	846.860474	282.798065	-89.238007	881.842773	82.943428	-121.768684	845.089355	63.082638	-178.037216	1018.213379	96.465965	-134.557541	618.973938	648.937073	-347.898529	578.942139	595.508850	-341.303589	628.644775	585.179443	-332.278595	561.716614	439.740570	-317.956207	445.199646	345.182495	-336.534760	399.856140	296.994019	-326.802185	447.785095	280.139252	-322.666992	301.199066	149.445297	-299.707458	264.238251	164.818726	-257.759583	413.090759	60.508144	-272.484833	659.982428	775.316356	-131.286504	647.467528	779.360373	-279.434488	
391	1.950000	628.759094	1224.256958	-191.374725	586.160522	1037.031616	-193.842606	747.693909	1172.044189	-193.761887	793.061279	1039.184204	-203.210297	593.045227	1146.817627	-102.368469	718.113098	837.890869	-309.780151	734.919678	833.257629	-107.584518	564.695862	873.583374	-189.016083	762.943970	652.777039	-75.524391	751.049377	588.163574	-69.027382	797.656616	598.527100	-91.673637	821.112183	469.624298	-103.971062	808.091797	330.321350	-80.980614	807.121643	264.342041	-94.622810	854.523987	283.112366	-90.239204	884.863281	82.491608	-121.920387	846.419312	63.616791	-177.492661	1021.455261	91.756813	-137.250198	628.039917	647.897888	-347.330780	588.360962	594.184814	-341.056976	638.114197	584.176941	-331.927185	571.644592	438.136597	-318.782990	453.018280	345.800720	-337.005951	406.729095	298.507721	-327.156525	454.319397	280.654755	-323.460266	305.451080	152.873657	-300.029327	269.428284	169.457275	-257.831390	413.496033	60.117233	-272.349854	667.661613	775.415842	-130.621133	655.360199	778.807098	-278.616282	
392	1.955000	635.606445	1224.077148	-190.396484	593.374207	1036.736084	-193.252808	754.652527	1172.050781	-192.781830	800.336609	1039.318848	-202.156326	600.003113	1146.519043	-101.424721	725.942444	837.263184	-309.042328	742.429749	833.593201	-107.096840	572.149475	873.286011	-188.899139	771.041260	653.228455	-75.461754	758.838074	588.492432	-69.372429	805.511292	598.772400	-91.782104	829.776978	470.359039	-104.688950	816.577820	331.370239	-80.766609	814.694946	265.359436	-93.636070	862.173401	283.617859	-91.151237	887.750244	82.232033	-121.960213	847.712708	64.335152	-176.862778	1024.483521	87.317505	-139.661377	637.293945	646.842590	-346.744080	598.070496	592.789551	-340.821533	647.888977	583.171509	-331.574677	581.927612	436.500427	-319.665375	461.242493	346.438904	-337.526184	414.039276	300.064301	-327.521240	461.272308	281.214630	-324.326538	310.229950	156.435516	-300.325806	275.239960	174.252167	-257.862823	413.900696	59.685619	-272.177094	675.299452	775.625593	-129.915030	663.230000	778.312186	-277.748249	
393	1.960000	642.444946	1223.962769	-189.431305	600.567383	1036.513306	-192.680542	761.596191	1172.120117	-191.824600	807.588684	1039.513672	-201.132004	606.960510	1146.292969	-100.487831	733.736389	836.686157	-308.269318	749.884155	834.043396	-106.582764	579.557373	873.064331	-188.795517	778.849670	653.674866	-75.274483	766.264954	588.821960	-69.643646	813.052185	599.002258	-91.685539	838.296448	471.148224	-105.365417	825.030884	332.540436	-80.443169	822.260010	266.535919	-92.446442	869.736755	284.253845	-91.968193	890.463257	82.128929	-121.912376	848.957642	65.180099	-176.181396	1027.260010	83.197807	-141.779251	646.718567	645.777283	-346.148041	608.057312	591.327942	-340.605316	657.956055	582.168762	-331.232483	592.553650	434.844055	-320.593018	469.891113	347.081818	-338.098907	421.812958	301.639557	-327.904907	468.671967	281.805206	-325.258087	315.565979	160.111664	-300.607056	281.691833	179.182434	-257.873016	414.322998	59.235458	-271.968964	682.888253	775.941812	-129.168550	671.065626	777.876716	-276.833863	
394	1.965000	649.272400	1223.914307	-188.482117	607.736206	1036.363892	-192.126358	768.522522	1172.251953	-190.893478	814.812134	1039.766968	-200.141983	613.914490	1146.140259	-99.560669	741.484131	836.162170	-307.466156	757.276978	834.602356	-106.041924	586.914795	872.917664	-188.701538	786.393982	654.149902	-74.973465	773.412903	589.190430	-69.809097	820.340759	599.283875	-91.402206	846.646484	471.967529	-105.986938	833.373657	333.772614	-80.022118	829.708923	267.806976	-91.106316	877.132690	284.951477	-92.689049	892.965881	82.145210	-121.802780	850.138794	66.094917	-175.482788	1029.757202	79.436409	-143.598816	656.292969	644.709900	-345.552368	618.300781	589.808655	-340.415649	668.294678	581.176025	-330.912201	603.507324	433.180786	-321.553192	478.976685	347.712982	-338.725464	430.068726	303.207397	-328.315369	476.539490	282.411438	-326.242523	321.479065	163.881119	-300.884064	288.788635	184.224838	-257.883606	414.794678	58.798149	-271.729584	690.420403	776.358861	-128.383061	678.855935	777.501050	-275.877950	
